<?xml version="1.0" standalone="no"?>
<!DOCTYPE svg PUBLIC "-//W3C//DTD SVG 20010904//EN"
 "http://www.w3.org/TR/2001/REC-SVG-20010904/DTD/svg10.dtd">
<svg version="1.0" xmlns="http://www.w3.org/2000/svg"
 width="512.000000pt" height="512.000000pt" viewBox="0 0 512.000000 512.000000"
 preserveAspectRatio="xMidYMid meet">
<metadata>
Created by potrace 1.14, written by Peter Selinger 2001-2017
</metadata>
<g transform="translate(0.000000,512.000000) scale(0.100000,-0.100000)"
fill="#000000" stroke="none">
<path d="M754 5101 c-85 -31 -145 -71 -225 -150 -84 -84 -126 -151 -161 -256
l-23 -70 0 -1715 c0 -1635 1 -1718 18 -1774 39 -127 111 -233 213 -318 77 -63
138 -95 230 -118 75 -19 115 -20 1398 -20 1462 0 1380 -3 1519 66 95 48 228
180 274 274 67 134 63 10 63 1890 0 1464 -2 1713 -15 1760 -45 170 -170 322
-329 401 l-89 44 -1411 2 c-1350 2 -1413 2 -1462 -16z m2502 -492 c196 -36
338 -186 365 -386 6 -51 9 -520 7 -1383 l-3 -1305 -23 -60 c-61 -161 -183
-266 -344 -295 -36 -7 -423 -9 -1099 -8 -1175 3 -1088 -2 -1211 81 -76 52
-138 139 -168 234 -20 64 -20 88 -20 1408 0 1317 0 1344 20 1408 24 76 84 170
135 210 46 37 150 85 206 96 67 13 2062 13 2135 0z"/>
<path d="M1825 4119 c-34 -38 -37 -46 -32 -83 4 -30 15 -50 41 -73 l36 -33
681 0 681 0 39 39 c32 32 39 45 39 79 0 32 -7 48 -34 76 l-33 36 -691 0 -690
0 -37 -41z"/>
<path d="M1149 3567 c-44 -30 -61 -63 -55 -110 5 -43 33 -79 74 -96 19 -8 325
-11 1050 -9 l1024 3 34 37 c48 53 48 103 0 156 l-34 37 -1030 3 -1029 2 -34
-23z"/>
<path d="M1129 2971 c-53 -53 -54 -95 -3 -151 l36 -40 1040 0 1040 0 34 34
c29 29 34 41 34 79 0 39 -5 49 -40 81 l-40 36 -1031 0 -1031 0 -39 -39z"/>
<path d="M1126 2390 c-51 -56 -50 -98 3 -151 l39 -39 1031 0 1031 0 40 36 c35
32 40 42 40 81 0 38 -5 50 -34 79 l-34 34 -1040 0 -1040 0 -36 -40z"/>
<path d="M1149 1837 c-44 -30 -61 -63 -55 -110 5 -43 33 -79 74 -96 19 -8 325
-11 1050 -9 l1024 3 34 37 c48 53 48 103 0 156 l-34 37 -1030 3 -1029 2 -34
-23z"/>
<path d="M4342 4397 c-9 -10 -12 -488 -14 -1763 l-3 -1749 -27 -73 c-67 -183
-178 -299 -356 -370 l-67 -27 -1344 -3 c-874 -1 -1356 1 -1379 8 -28 7 -40 6
-50 -3 -10 -11 -6 -26 24 -86 67 -134 216 -267 349 -311 60 -20 80 -20 1460
-18 l1400 3 89 44 c157 76 279 222 333 396 17 57 18 138 18 1770 0 1631 -1
1713 -18 1769 -42 136 -121 250 -229 331 -100 75 -168 105 -186 82z"/>
</g>
</svg>
